<svg width="18" height="16" viewBox="0 0 18 16" fill="none" xmlns="http://www.w3.org/2000/svg">
<path d="M8.86304 5.14923L11.4397 7.72592L11.452 7.59095C11.452 6.23716 10.3518 5.13696 8.99801 5.13696L8.86304 5.14923Z" fill="black"/>
<path d="M8.99795 3.50079C11.2556 3.50079 13.0879 5.33311 13.0879 7.59078C13.0879 8.11839 12.9816 8.62145 12.7976 9.08361L15.1902 11.4762C16.4254 10.4456 17.3988 9.11225 18 7.59078C16.5808 3.99979 13.092 1.45581 8.99798 1.45581C7.85278 1.45581 6.75669 1.6603 5.73828 2.02839L7.50515 3.79116C7.96727 3.61122 8.47034 3.50079 8.99795 3.50079Z" fill="black"/>
<path d="M0.817983 1.27195L2.68301 3.13698L3.05521 3.50918C1.70552 4.56439 0.638037 5.96727 0 7.59097C1.41515 11.182 4.90798 13.7259 8.99797 13.7259C10.2659 13.7259 11.4765 13.4805 12.5849 13.0347L12.9326 13.3824L15.317 15.7709L16.36 14.7321L1.86093 0.229004L0.817983 1.27195ZM5.34153 5.79139L6.60533 7.05519C6.56852 7.23107 6.54398 7.40692 6.54398 7.59097C6.54398 8.94476 7.64417 10.045 8.99797 10.045C9.18202 10.045 9.3579 10.0204 9.52968 9.9836L10.7935 11.2474C10.2495 11.5173 9.64421 11.681 8.99797 11.681C6.7403 11.681 4.90798 9.84864 4.90798 7.59097C4.90798 6.94476 5.07159 6.33943 5.34153 5.79139Z" fill="black"/>
</svg>
